<svg width="216" height="26" viewBox="0 0 216 26" fill="none" xmlns="http://www.w3.org/2000/svg">
<g id="logo" clip-path="url(#clip0_217_3130)">
<g id="Group">
<path id="Vector" d="M28.4084 12.8813H32.953C32.953 5.7662 27.1868 0 20.0717 0C15.4228 0 11.3587 2.46627 9.09508 6.15409V0H4.55043L0 4.54464H4.54464V25.7626H9.08929V19.6028C7.8851 17.646 7.1788 15.3476 7.1788 12.8813C7.1788 10.2008 8.18036 7.75774 9.81875 5.89356C9.85927 5.84725 9.8998 5.80093 9.94032 5.76041C10.1661 5.50568 10.4093 5.26831 10.6582 5.03674C10.7103 4.99043 10.7624 4.94411 10.8145 4.8978C11.0924 4.66043 11.3761 4.42886 11.6771 4.21465C11.7003 4.19728 11.7234 4.17992 11.7466 4.16255C12.0824 3.93097 12.4297 3.71677 12.7945 3.51993C12.8061 3.51414 12.8234 3.50835 12.8408 3.49677C13.165 3.32309 13.5066 3.17257 13.8481 3.03362C13.9523 2.9931 14.0566 2.95836 14.1608 2.91784C14.4271 2.81942 14.6934 2.73258 14.9713 2.65731C15.0986 2.62258 15.226 2.58784 15.3592 2.5589C15.6371 2.49521 15.9149 2.44311 16.1986 2.40258C16.3202 2.38521 16.436 2.36206 16.5633 2.34469C16.9686 2.29837 17.3739 2.26943 17.7907 2.26943C18.4102 2.26943 19.0122 2.32732 19.597 2.43153C19.6722 2.44311 19.7533 2.4489 19.8285 2.46627C19.9328 2.48363 20.0254 2.51837 20.1296 2.53574C21.0096 2.73258 21.849 3.03362 22.6306 3.43309C22.6306 3.43309 22.6364 3.43309 22.6422 3.43888C22.9259 3.58361 23.2095 3.74571 23.4816 3.91939C23.5048 3.93676 23.5279 3.95413 23.5511 3.9715C23.8 4.1336 24.0432 4.30149 24.2748 4.48096C24.2979 4.49833 24.3153 4.5157 24.3327 4.52728C24.5642 4.71254 24.7958 4.90358 25.01 5.10621C25.0274 5.12358 25.0448 5.14674 25.0621 5.15832C25.2763 5.36094 25.4905 5.56936 25.6874 5.79515C25.7105 5.8183 25.7279 5.84725 25.7511 5.87041C25.9421 6.0904 26.1274 6.3104 26.301 6.54197C26.3763 6.64039 26.44 6.75039 26.5095 6.84881C26.6195 7.01091 26.741 7.17301 26.8452 7.3409C26.9495 7.51458 27.0421 7.69984 27.1405 7.87931C27.1926 7.98352 27.2621 8.08773 27.3084 8.19194C27.4068 8.39457 27.4937 8.60298 27.5805 8.81719C27.621 8.90982 27.6673 8.99666 27.7021 9.09508C27.8121 9.39034 27.9163 9.69717 28.0031 10.004C28.0031 10.0156 28.0089 10.0214 28.0147 10.033C28.1942 10.6756 28.31 11.3356 28.3678 12.0245C28.3968 12.3024 28.4142 12.5861 28.4142 12.8755L28.4084 12.8813Z" fill="#686868"/>
<path id="Vector_2" d="M49.58 16.6733V0H48.8216L28.3562 20.4654H45.0353V25.7742H49.5742V20.4654H54.8772V16.6733H49.5742H49.58ZM45.0411 16.6733H37.4571L45.0411 9.10087V16.6733Z" fill="#686868"/>
<path id="Vector_3" d="M28.3621 20.4595L32.4668 16.3549C32.7794 15.2491 32.9531 14.0854 32.9531 12.8812H28.4142C28.4142 17.4838 24.6859 21.2179 20.0775 21.2179C15.4692 21.2179 11.7409 17.4838 11.7409 12.8812C11.7409 8.27871 15.4692 4.54457 20.0775 4.54457C24.3906 4.54457 27.9395 7.82135 28.3679 12.0244C27.9337 6.57085 23.3717 2.27515 17.7965 2.27515C11.9319 2.27515 7.19043 7.02821 7.19043 12.8812C7.19043 19.9964 12.9566 25.7684 20.0775 25.7684C24.3559 25.7684 28.1363 23.6726 30.481 20.4595H28.3679H28.3621Z" fill="#FF7800"/>
</g>
<g id="Group_2">
<path id="Vector_4" d="M64.7077 19.4291H62.2762V5.84723C62.2588 5.29724 62.5309 5.01935 63.104 5.01935H73.1544V0.38208H75.6091V5.01935H85.4915C86.0994 5.01935 86.4004 5.30303 86.4004 5.87618V19.4349H83.9457V18.2191H75.6091V25.7568H73.1544V18.2191H64.7077V19.4349V19.4291ZM73.1544 15.7586V7.47404H65.0666C64.7888 7.45667 64.673 7.57246 64.7077 7.83298V15.7586H73.1544ZM83.9515 15.7586V7.83298C83.9342 7.59562 83.8068 7.47404 83.5636 7.47404H75.6149V15.7586H83.9515Z" fill="#686868"/>
<path id="Vector_5" d="M105.511 0.162109H107.856V2.1247H119.064V4.35939H94.135V2.1247H105.511V0.162109ZM113.35 23.3832C114.38 23.6206 115.04 23.6495 115.336 23.4643C115.758 23.1864 115.972 22.8274 115.972 22.3874V15.4576C115.972 15.3476 115.909 15.2897 115.781 15.2897H97.4465C97.3365 15.2897 97.2786 15.3476 97.2786 15.4576V25.7279H94.9339V13.7439C94.9339 13.3561 95.125 13.165 95.5129 13.165H117.738C118.126 13.165 118.317 13.3561 118.317 13.7439V23.3253C118.3 24.2632 117.929 24.9927 117.211 25.5079C116.274 26.1332 114.635 26.1679 112.296 25.6179L112.238 23.4353H100.092C99.8896 23.4353 99.7912 23.3253 99.7912 23.1053V17.1944C99.7912 16.9918 99.8896 16.8933 100.092 16.8933H113.124C113.344 16.8933 113.454 16.9918 113.454 17.1944V23.1053C113.454 23.2327 113.419 23.3253 113.344 23.3832H113.35ZM115.087 12.0071H98.1354C97.9502 12.0071 97.8576 11.8971 97.8576 11.6771V6.18304C97.8576 5.98041 97.9502 5.88199 98.1354 5.88199H115.087C115.289 5.88199 115.388 5.9862 115.388 6.18304V11.6771C115.388 11.8971 115.289 12.0071 115.087 12.0071ZM100.289 7.91985C100.196 7.90248 100.168 7.93721 100.208 8.02984V9.85349C100.173 9.91139 100.196 9.9577 100.289 9.99244H112.962L113.043 9.85349V8.02984C113.043 7.95458 113.014 7.91985 112.962 7.91985H100.289ZM102.003 18.908C101.91 18.908 101.881 18.937 101.922 18.9891V21.3106L102.003 21.4206H111.225L111.335 21.3106V18.9891L111.225 18.908H102.003Z" fill="#686868"/>
<path id="Vector_6" d="M128.014 1.12315H130.139V5.51148H132.322V0.272111H134.446V1.73682H138.644V3.86151H134.446V5.51727H139.414V6.87198C140.792 5.69674 141.851 4.68939 142.586 3.86151C143.339 2.97574 144.097 1.77155 144.85 0.243164L146.645 0.8221L146.396 1.29104C147.941 3.33468 149.794 5.11201 151.948 6.61725L150.344 8.2209C148.335 6.72724 146.679 5.04833 145.377 3.16679C144.254 5.10043 142.829 6.81987 141.098 8.33089L139.414 7.03408V7.64196H126.22V5.51727H128.014V1.12315ZM129.89 8.493L131.685 8.60299L131.494 10.3166L133.097 12.3313C133.781 11.0056 134.203 9.70876 134.365 8.44089L136.131 8.66089L135.83 10.3166L137.544 12.3313V9.23982H139.587V24.4774C139.587 25.1374 139.246 25.4732 138.568 25.4732H127.638C126.995 25.4732 126.671 25.1432 126.671 24.4774V9.24561H128.686V12.7771C129.439 11.3414 129.844 9.91718 129.902 8.49879L129.89 8.493ZM137.538 12.8003L136.38 13.7382L135.245 12.0824L134.499 13.4892L132.814 12.8524L131.818 13.6224L130.932 12.2156L130.353 13.5703L128.669 13.0724V14.786H137.532V12.8003H137.538ZM137.538 16.6907H128.674V21.6869C129.502 20.3264 130 18.8502 130.162 17.2697L131.928 17.5186L131.569 19.3712L133.283 21.6348C133.983 20.257 134.406 18.8096 134.551 17.2986L136.345 17.4665L136.015 19.4812L137.532 21.3569V16.6907H137.538ZM128.674 23.0938C128.674 23.3311 128.784 23.4527 129.004 23.4527H137.202C137.422 23.4527 137.532 23.3311 137.532 23.0938V22.0748L136.455 22.9027L135.436 21.328L134.747 22.7638L132.982 22.1269L133.092 21.9069L131.905 22.7927L130.967 21.1891C130.689 21.8317 130.394 22.4048 130.081 22.9027L128.674 22.3527V23.0995V23.0938ZM140.519 14.0913V11.9666H150.13C150.645 11.9492 150.923 12.0766 150.958 12.3545V19.2554C150.94 20.9864 150.385 22.2485 149.302 23.0359C148.804 23.3485 147.635 23.3659 145.794 23.0938L145.736 20.8591C146.911 21.2643 147.675 21.3743 148.028 21.1891C148.266 21.0212 148.462 20.7722 148.607 20.4422C148.735 20.1122 148.798 19.8286 148.798 19.5854V14.3692C148.798 14.1839 148.706 14.0913 148.52 14.0913H145.319V25.7395H143.194V14.0913H140.514H140.519ZM148.995 7.98932V10.114H142.065V7.98932H148.995Z" fill="#686868"/>
<path id="Vector_7" d="M158.628 21.1138V18.9891H176.436V17.3623L159.763 17.8891L159.514 15.7644L170.062 15.4344V14.2187H161.089C160.886 14.2187 160.788 14.1087 160.788 13.8887V5.80094C160.788 5.61568 160.886 5.52305 161.089 5.52305H170.062V4.08729H158.854V1.9626H170.062V0.162109H172.297V1.95681H183.673V4.0815H172.297V5.51726H181.352C181.572 5.51726 181.682 5.60989 181.682 5.79515V13.8829C181.682 14.1029 181.572 14.2129 181.352 14.2129H181.323C182.411 15.446 183.216 16.4591 183.754 17.2523L182.017 18.4102L181.108 17.2233L178.677 17.2754V18.9891H183.893V21.1138H178.677V23.2095C178.642 24.24 178.243 24.9927 177.49 25.4732C176.477 26.1737 174.567 26.1274 171.747 25.3342L171.799 23.0185L173.895 23.5685L175.302 23.7595C175.58 23.7769 175.875 23.6495 176.188 23.3716C176.355 23.2269 176.436 22.9838 176.436 22.6538V21.108H158.628V21.1138ZM170.057 7.42196H163.098C163.005 7.42196 162.976 7.45091 163.017 7.50301V8.90983H170.057V7.41617V7.42196ZM170.057 10.7045H163.017V12.1982L163.098 12.3082H170.057V10.7045ZM166.189 21.4148C167.44 22.2601 168.47 23.0822 169.281 23.8695L167.654 25.4963C166.641 24.5585 165.657 23.7827 164.701 23.1806L166.195 21.4148H166.189ZM172.291 8.90983H179.441V7.50301L179.331 7.42196H172.291V8.91562V8.90983ZM172.291 12.3082H179.331L179.441 12.1982V10.7045H172.291V12.3082ZM179.053 14.2129H172.291V15.3476L179.36 15.1276L178.781 14.4676L179.059 14.2187L179.053 14.2129Z" fill="#686868"/>
<path id="Vector_8" d="M191.153 3.44466V1.29102H215.972V3.44466H194.522V22.1095C194.522 22.5148 194.725 22.7174 195.13 22.7174H215.7V24.9521H193.284C192.548 24.9521 192.178 24.5758 192.178 23.8174V3.44466H191.159H191.153ZM204.434 21.6117H196.346C196.161 21.6117 196.068 21.5017 196.068 21.2817V13.1939C196.068 12.9913 196.161 12.8929 196.346 12.8929H204.434C204.654 12.8929 204.764 12.9913 204.764 13.1939V21.2817C204.764 21.5017 204.654 21.6117 204.434 21.6117ZM212.689 11.3703H197.475C197.29 11.3703 197.197 11.2603 197.197 11.0403V5.2162C197.197 5.01357 197.29 4.91515 197.475 4.91515H212.689C212.909 4.91515 213.019 5.01357 213.019 5.2162V11.0403C213.019 11.2603 212.909 11.3703 212.689 11.3703ZM198.28 14.9307C198.187 14.9307 198.158 14.9481 198.199 14.9886V19.487L198.28 19.568H202.529L202.639 19.487V14.9886L202.529 14.9307H198.28ZM199.524 6.92406C199.432 6.92406 199.403 6.95301 199.443 7.00511V9.21664L199.524 9.32664H210.681L210.791 9.21664V7.00511L210.681 6.92406H199.524ZM214.571 21.5017H206.593C206.408 21.5017 206.315 21.3917 206.315 21.1717V13.1939C206.315 12.9913 206.408 12.8929 206.593 12.8929H214.571C214.791 12.8929 214.901 12.9913 214.901 13.1939V21.1717C214.901 21.3917 214.791 21.5017 214.571 21.5017ZM208.527 14.9307C208.434 14.9307 208.405 14.9481 208.446 14.9886V19.377L208.527 19.487H212.666L212.776 19.377V14.9886L212.666 14.9307H208.527Z" fill="#686868"/>
</g>
</g>
<defs>
<clipPath id="clip0_217_3130">
<rect width="215.972" height="26" fill="white"/>
</clipPath>
</defs>
</svg>
