<svg width="60" height="61" viewBox="0 0 60 61" fill="none" xmlns="http://www.w3.org/2000/svg">
<g clip-path="url(#clip0_310_2306)">
<rect opacity="0.1" y="0.612404" width="60" height="60" rx="8" fill="#FF7800"/>
<g clip-path="url(#clip1_310_2306)">
<path d="M30 18.5707C28.625 18.5707 27.5 17.4457 27.5 16.0707V13.4457C27.5 12.0707 28.625 10.9457 30 10.9457C31.375 10.9457 32.5 12.0707 32.5 13.4457V16.0707C32.5 17.4457 31.375 18.5707 30 18.5707Z" fill="#FF7800"/>
<path d="M22.8751 20.4874C22.0209 20.4874 21.1667 20.0499 20.7084 19.2374L19.3959 16.9666C18.7084 15.7791 19.1042 14.2374 20.3126 13.5499C21.5001 12.8624 23.0417 13.2582 23.7292 14.4666L25.0417 16.7374C25.7292 17.9249 25.3334 19.4666 24.1251 20.1541C23.7292 20.3832 23.2917 20.4874 22.8751 20.4874Z" fill="#FFC31B"/>
<path d="M17.6667 25.7166C17.25 25.7166 16.8125 25.6124 16.4375 25.3832L14.1459 24.0916C12.9375 23.4041 12.5209 21.8832 13.2084 20.6749C13.8959 19.4666 15.4167 19.0499 16.625 19.7374L18.9167 21.0291C20.125 21.7166 20.5417 23.2374 19.8542 24.4457C19.375 25.2791 18.5417 25.7166 17.6667 25.7166Z" fill="#FF7800"/>
<path d="M13.1667 32.8832C11.7917 32.8832 10.6875 31.7791 10.6667 30.4041C10.6458 29.0291 11.7708 27.9041 13.1458 27.8832L15.7708 27.8624H15.7917C17.1667 27.8624 18.2708 28.9666 18.2917 30.3416C18.3125 31.7166 17.1875 32.8416 15.8125 32.8624L13.1667 32.8832C13.1875 32.8832 13.1875 32.8832 13.1667 32.8832Z" fill="#FFC31B"/>
<path d="M15.5208 41.3207C14.6666 41.3207 13.8333 40.8832 13.375 40.0916C12.6666 38.9041 13.0625 37.3624 14.25 36.6749L16.5208 35.3416C17.7083 34.6332 19.25 35.0291 19.9375 36.2166C20.6458 37.4041 20.25 38.9457 19.0625 39.6332L16.7916 40.9666C16.3958 41.2166 15.9583 41.3207 15.5208 41.3207Z" fill="#FF7800"/>
<path d="M21.7709 47.4457C21.3542 47.4457 20.9375 47.3416 20.5417 47.1332C19.3334 46.4666 18.9167 44.9249 19.5834 43.7374L20.875 41.4457C21.5417 40.2374 23.0834 39.8207 24.2709 40.4874C25.4792 41.1541 25.8959 42.6957 25.2292 43.8832L23.9375 46.1749C23.5 46.9874 22.6459 47.4457 21.7709 47.4457Z" fill="#FFC31B"/>
<path d="M30.25 49.5916C28.8958 49.5916 27.7708 48.4874 27.75 47.1332L27.7083 44.4874C27.6875 43.1124 28.7916 41.9666 30.1666 41.9457C31.5416 41.9249 32.6875 43.0291 32.7083 44.4041L32.75 47.0291C32.7708 48.4041 31.6666 49.5499 30.2916 49.5707C30.2916 49.5916 30.2708 49.5916 30.25 49.5916Z" fill="#FF7800"/>
<path d="M38.6667 47.1749C37.8125 47.1749 37 46.7374 36.5208 45.9666L35.1667 43.7166C34.4583 42.5291 34.8333 40.9874 36.0208 40.2791C37.2083 39.5707 38.75 39.9457 39.4583 41.1332L40.8125 43.3832C41.5208 44.5707 41.1458 46.1124 39.9583 46.8207C39.5625 47.0707 39.1042 47.1749 38.6667 47.1749Z" fill="#FFC31B"/>
<path d="M44.7291 40.8832C44.3125 40.8832 43.9166 40.7791 43.5208 40.5707L41.2291 39.2999C40.0208 38.6332 39.5833 37.1124 40.25 35.9041C40.9166 34.6957 42.4375 34.2582 43.6458 34.9249L45.9375 36.1957C47.1458 36.8624 47.5833 38.3832 46.9166 39.5916C46.4791 40.4041 45.625 40.8832 44.7291 40.8832Z" fill="#FF7800"/>
<path d="M44.1875 32.4249C42.8334 32.4249 41.7292 31.3416 41.6875 29.9874C41.6459 28.6124 42.75 27.4666 44.125 27.4249L46.75 27.3624C46.7709 27.3624 46.7917 27.3624 46.8125 27.3624C48.1667 27.3624 49.2709 28.4457 49.3125 29.7999C49.3542 31.1749 48.25 32.3207 46.875 32.3624L44.25 32.4249C44.2292 32.4249 44.2084 32.4249 44.1875 32.4249Z" fill="#FFC31B"/>
<path d="M42.1042 25.3416C41.2709 25.3416 40.4375 24.9249 39.9792 24.1541C39.25 22.9666 39.625 21.4457 40.8125 20.7166L43.0625 19.3416C44.25 18.6124 45.7709 18.9874 46.5 20.1749C47.2292 21.3624 46.8542 22.8832 45.6667 23.6124L43.4167 24.9874C43 25.2374 42.5625 25.3416 42.1042 25.3416Z" fill="#FF7800"/>
<path d="M36.75 20.2791C36.3541 20.2791 35.9375 20.1749 35.5625 19.9874C34.3541 19.3207 33.8958 17.8207 34.5416 16.5916L35.7916 14.2791C36.4583 13.0707 37.9583 12.6124 39.1875 13.2582C40.3958 13.9249 40.8541 15.4249 40.2083 16.6541L38.9583 18.9666C38.5 19.7999 37.6458 20.2791 36.75 20.2791Z" fill="#FFC31B"/>
<path d="M30 38.4249C25.5 38.4249 21.8334 34.7582 21.8334 30.2582C21.8334 25.7582 25.5 22.1124 30 22.1124C34.5 22.1124 38.1667 25.7791 38.1667 30.2791C38.1667 34.7791 34.5 38.4249 30 38.4249ZM30 27.1124C28.25 27.1124 26.8334 28.5291 26.8334 30.2791C26.8334 32.0291 28.25 33.4457 30 33.4457C31.75 33.4457 33.1667 32.0291 33.1667 30.2791C33.1667 28.5291 31.75 27.1124 30 27.1124Z" fill="#FF7800"/>
<path d="M35.6667 32.7582C34.2917 32.7582 33.1667 31.6332 33.1667 30.2582C33.1667 28.5082 31.75 27.0916 30 27.0916C28.25 27.0916 26.8334 28.5291 26.8334 30.2582C26.8334 31.6332 25.7084 32.7582 24.3334 32.7582C22.9584 32.7582 21.8334 31.6332 21.8334 30.2582C21.8334 25.7582 25.5 22.0916 30 22.0916C34.5 22.0916 38.1667 25.7582 38.1667 30.2582C38.1667 31.6332 37.0417 32.7582 35.6667 32.7582Z" fill="#FF9002"/>
</g>
</g>
<defs>
<clipPath id="clip0_310_2306">
<rect width="60" height="60" fill="white" transform="translate(0 0.612404)"/>
</clipPath>
<clipPath id="clip1_310_2306">
<rect width="40" height="40" fill="white" transform="translate(10 10.6124)"/>
</clipPath>
</defs>
</svg>
