<svg width="60" height="61" viewBox="0 0 60 61" fill="none" xmlns="http://www.w3.org/2000/svg">
<g clip-path="url(#clip0_310_4303)">
<rect opacity="0.1" y="0.612404" width="60" height="60" rx="8" fill="#FF7800"/>
<g clip-path="url(#clip1_310_4303)">
<path d="M16.6667 15.6124C16.6667 14.2317 15.5474 13.1124 14.1667 13.1124C12.786 13.1124 11.6667 14.2317 11.6667 15.6124V45.6124C11.6667 46.9931 12.786 48.1124 14.1667 48.1124C15.5474 48.1124 16.6667 46.9931 16.6667 45.6124V15.6124Z" fill="#FF9100"/>
<path d="M45.8334 13.1124H14.1667C12.786 13.1124 11.6667 14.2317 11.6667 15.6124C11.6667 16.9931 12.786 18.1124 14.1667 18.1124H45.8334C47.2141 18.1124 48.3334 16.9931 48.3334 15.6124C48.3334 14.2317 47.2141 13.1124 45.8334 13.1124Z" fill="#FFC31B"/>
<path d="M48.3334 15.6124C48.3334 14.2317 47.2141 13.1124 45.8334 13.1124C44.4527 13.1124 43.3334 14.2317 43.3334 15.6124V38.3207C43.3334 39.7015 44.4527 40.8207 45.8334 40.8207C47.2141 40.8207 48.3334 39.7015 48.3334 38.3207V15.6124Z" fill="#FFC31B"/>
<path d="M25.625 26.8624C25.625 25.1365 24.2259 23.7374 22.5 23.7374C20.7741 23.7374 19.375 25.1365 19.375 26.8624C19.375 28.5883 20.7741 29.9874 22.5 29.9874C24.2259 29.9874 25.625 28.5883 25.625 26.8624Z" fill="#FF7800"/>
<path d="M33.125 26.8624C33.125 25.1365 31.7259 23.7374 30 23.7374C28.2741 23.7374 26.875 25.1365 26.875 26.8624C26.875 28.5883 28.2741 29.9874 30 29.9874C31.7259 29.9874 33.125 28.5883 33.125 26.8624Z" fill="#FF7800"/>
<path d="M40.625 26.8624C40.625 25.1365 39.2259 23.7374 37.5 23.7374C35.7741 23.7374 34.375 25.1365 34.375 26.8624C34.375 28.5883 35.7741 29.9874 37.5 29.9874C39.2259 29.9874 40.625 28.5883 40.625 26.8624Z" fill="#FF7800"/>
<path d="M18.4702 37.9817L12.5776 43.8742C11.6013 44.8506 11.6013 46.4335 12.5776 47.4098C13.554 48.3861 15.1369 48.3861 16.1132 47.4098L22.0057 41.5172C22.982 40.5409 22.982 38.958 22.0057 37.9817C21.0294 37.0054 19.4465 37.0054 18.4702 37.9817Z" fill="#FF9100"/>
<path d="M45.8334 35.8207H14.1667C12.786 35.8207 11.6667 36.94 11.6667 38.3207C11.6667 39.7015 12.786 40.8207 14.1667 40.8207H45.8334C47.2141 40.8207 48.3334 39.7015 48.3334 38.3207C48.3334 36.94 47.2141 35.8207 45.8334 35.8207Z" fill="#FF9100"/>
</g>
</g>
<defs>
<clipPath id="clip0_310_4303">
<rect width="60" height="60" fill="white" transform="translate(0 0.612404)"/>
</clipPath>
<clipPath id="clip1_310_4303">
<rect width="40" height="40" fill="white" transform="translate(10 10.6124)"/>
</clipPath>
</defs>
</svg>
