<svg width="60" height="61" viewBox="0 0 60 61" fill="none" xmlns="http://www.w3.org/2000/svg">
<g clip-path="url(#clip0_310_4384)">
<rect opacity="0.1" y="0.612404" width="60" height="60" rx="8" fill="#FF7800"/>
<g clip-path="url(#clip1_310_4384)">
<path d="M16.6666 23.945C16.6666 22.5643 15.5473 21.445 14.1666 21.445C12.7859 21.445 11.6666 22.5643 11.6666 23.945V46.445C11.6666 47.8257 12.7859 48.945 14.1666 48.945C15.5473 48.945 16.6666 47.8257 16.6666 46.445V23.945Z" fill="#FF9100"/>
<path d="M45.8333 43.945H14.1666C12.7859 43.945 11.6666 45.0643 11.6666 46.445C11.6666 47.8257 12.7859 48.945 14.1666 48.945H45.8333C47.214 48.945 48.3333 47.8257 48.3333 46.445C48.3333 45.0643 47.214 43.945 45.8333 43.945Z" fill="#FF9100"/>
<path d="M48.3334 23.945C48.3334 22.5643 47.2141 21.445 45.8334 21.445C44.4527 21.445 43.3334 22.5643 43.3334 23.945V46.445C43.3334 47.8257 44.4527 48.945 45.8334 48.945C47.2141 48.945 48.3334 47.8257 48.3334 46.445V23.945Z" fill="#FFC31B"/>
<path d="M31.1658 12.5612C29.9701 11.8709 28.4411 12.2806 27.7507 13.4763C27.0604 14.672 27.4701 16.201 28.6658 16.8913L44.5429 26.058C45.7387 26.7484 47.2676 26.3387 47.958 25.143C48.6483 23.9472 48.2387 22.4182 47.0429 21.7279L31.1658 12.5612Z" fill="#FFC31B"/>
<path d="M28.7721 12.5612C29.9678 11.8709 31.4968 12.2806 32.1871 13.4763C32.8775 14.672 32.4678 16.201 31.2721 16.8913L15.3949 26.058C14.1992 26.7484 12.6702 26.3387 11.9799 25.143C11.2895 23.9472 11.6992 22.4182 12.8949 21.7279L28.7721 12.5612Z" fill="#FFC31B"/>
<path d="M32.5 25.1957C32.5 23.815 31.3807 22.6957 30 22.6957C28.6193 22.6957 27.5 23.815 27.5 25.1957V38.9457C27.5 40.3265 28.6193 41.4457 30 41.4457C31.3807 41.4457 32.5 40.3265 32.5 38.9457V25.1957Z" fill="#FF7800"/>
<path d="M36.875 29.5707H23.125C21.7443 29.5707 20.625 30.69 20.625 32.0707C20.625 33.4515 21.7443 34.5707 23.125 34.5707H36.875C38.2557 34.5707 39.375 33.4515 39.375 32.0707C39.375 30.69 38.2557 29.5707 36.875 29.5707Z" fill="#FF7800"/>
<path d="M16.6666 46.4457C16.6666 45.065 15.5473 43.9457 14.1666 43.9457C12.7859 43.9457 11.6666 45.065 11.6666 46.4457C11.6666 47.8265 12.7859 48.9457 14.1666 48.9457C15.5473 48.9457 16.6666 47.8265 16.6666 46.4457Z" fill="#FF7800"/>
</g>
</g>
<defs>
<clipPath id="clip0_310_4384">
<rect width="60" height="60" fill="white" transform="translate(0 0.612404)"/>
</clipPath>
<clipPath id="clip1_310_4384">
<rect width="40" height="40" fill="white" transform="translate(10 10.6124)"/>
</clipPath>
</defs>
</svg>
