<svg width="60" height="61" viewBox="0 0 60 61" fill="none" xmlns="http://www.w3.org/2000/svg">
<g clip-path="url(#clip0_310_995)">
<rect opacity="0.1" y="0.612404" width="60" height="60" rx="8" fill="#FF7800"/>
<g clip-path="url(#clip1_310_995)">
<path d="M18.3334 14.7791C18.3334 13.3984 17.2141 12.2791 15.8334 12.2791C14.4527 12.2791 13.3334 13.3984 13.3334 14.7791V46.4457C13.3334 47.8264 14.4527 48.9457 15.8334 48.9457C17.2141 48.9457 18.3334 47.8264 18.3334 46.4457V14.7791Z" fill="#FF9100"/>
<path d="M44.1667 43.945H15.8334C14.4527 43.945 13.3334 45.0643 13.3334 46.445C13.3334 47.8257 14.4527 48.945 15.8334 48.945H44.1667C45.5474 48.945 46.6667 47.8257 46.6667 46.445C46.6667 45.0643 45.5474 43.945 44.1667 43.945Z" fill="#FF9100"/>
<path d="M44.1667 12.2791H15.8334C14.4527 12.2791 13.3334 13.3984 13.3334 14.7791C13.3334 16.1598 14.4527 17.2791 15.8334 17.2791H44.1667C45.5474 17.2791 46.6667 16.1598 46.6667 14.7791C46.6667 13.3984 45.5474 12.2791 44.1667 12.2791Z" fill="#FFC31B"/>
<path d="M46.6666 14.7791C46.6666 13.3984 45.5473 12.2791 44.1666 12.2791C42.7859 12.2791 41.6666 13.3984 41.6666 14.7791V46.4457C41.6666 47.8264 42.7859 48.9457 44.1666 48.9457C45.5473 48.9457 46.6666 47.8264 46.6666 46.4457V14.7791Z" fill="#FFC31B"/>
<path d="M35.8333 23.9457H24.1666C22.7859 23.9457 21.6666 25.065 21.6666 26.4457C21.6666 27.8265 22.7859 28.9457 24.1666 28.9457H35.8333C37.214 28.9457 38.3333 27.8265 38.3333 26.4457C38.3333 25.065 37.214 23.9457 35.8333 23.9457Z" fill="#FF7800"/>
<path d="M31.6666 32.2791H24.1666C22.7859 32.2791 21.6666 33.3984 21.6666 34.7791C21.6666 36.1598 22.7859 37.2791 24.1666 37.2791H31.6666C33.0473 37.2791 34.1666 36.1598 34.1666 34.7791C34.1666 33.3984 33.0473 32.2791 31.6666 32.2791Z" fill="#FF7800"/>
<path d="M18.3334 46.4457C18.3334 45.065 17.2141 43.9457 15.8334 43.9457C14.4527 43.9457 13.3334 45.065 13.3334 46.4457C13.3334 47.8265 14.4527 48.9457 15.8334 48.9457C17.2141 48.9457 18.3334 47.8265 18.3334 46.4457Z" fill="#FF7800"/>
</g>
</g>
<defs>
<clipPath id="clip0_310_995">
<rect width="60" height="60" fill="white" transform="translate(0 0.612404)"/>
</clipPath>
<clipPath id="clip1_310_995">
<rect width="40" height="40" fill="white" transform="translate(10 10.6124)"/>
</clipPath>
</defs>
</svg>
