<svg width="60" height="61" viewBox="0 0 60 61" fill="none" xmlns="http://www.w3.org/2000/svg">
<g clip-path="url(#clip0_310_4819)">
<rect opacity="0.1" y="0.612404" width="60" height="60" rx="8" fill="#FF7800"/>
<g clip-path="url(#clip1_310_4819)">
<path d="M32.5 40.6124C32.5 39.2317 31.3807 38.1124 30 38.1124C28.6193 38.1124 27.5 39.2317 27.5 40.6124V46.4457C27.5 47.8264 28.6193 48.9457 30 48.9457C31.3807 48.9457 32.5 47.8264 32.5 46.4457V40.6124Z" fill="#FF9100"/>
<path d="M22.9166 25.4041V29.8832C22.9166 33.8528 26.1346 37.0707 30.1041 37.0707C34.034 37.0707 37.2272 33.9168 37.2907 30.0021L37.2916 29.8832V25.4041H42.2916V29.8832C42.2916 37.3046 37.5255 42.0707 30.1041 42.0707C22.757 42.0707 18.0371 37.4243 17.9184 30.1054L17.9166 29.8832V25.4041H22.9166Z" fill="#FF7800"/>
<path d="M20 12.2791C15.3976 12.2791 11.6666 16.01 11.6666 20.6124C11.6666 25.2148 15.3976 28.9457 20 28.9457C24.6023 28.9457 28.3333 25.2148 28.3333 20.6124C28.3333 16.01 24.6023 12.2791 20 12.2791ZM20 17.2791C21.8409 17.2791 23.3333 18.7715 23.3333 20.6124C23.3333 22.4534 21.8409 23.9457 20 23.9457C18.159 23.9457 16.6666 22.4534 16.6666 20.6124C16.6666 18.7715 18.159 17.2791 20 17.2791Z" fill="#FFC31B"/>
<path d="M40 12.2791C35.3976 12.2791 31.6666 16.01 31.6666 20.6124C31.6666 25.2148 35.3976 28.9457 40 28.9457C44.6023 28.9457 48.3333 25.2148 48.3333 20.6124C48.3333 16.01 44.6023 12.2791 40 12.2791ZM40 17.2791C41.8409 17.2791 43.3333 18.7715 43.3333 20.6124C43.3333 22.4534 41.8409 23.9457 40 23.9457C38.159 23.9457 36.6666 22.4534 36.6666 20.6124C36.6666 18.7715 38.159 17.2791 40 17.2791Z" fill="#FFC31B"/>
</g>
</g>
<defs>
<clipPath id="clip0_310_4819">
<rect width="60" height="60" fill="white" transform="translate(0 0.612404)"/>
</clipPath>
<clipPath id="clip1_310_4819">
<rect width="40" height="40" fill="white" transform="translate(10 10.6124)"/>
</clipPath>
</defs>
</svg>
