<svg width="60" height="61" viewBox="0 0 60 61" fill="none" xmlns="http://www.w3.org/2000/svg">
<g clip-path="url(#clip0_310_4245)">
<rect opacity="0.1" y="0.612404" width="60" height="60" rx="8" fill="#FF7800"/>
<g clip-path="url(#clip1_310_4245)">
<path d="M15.3939 49.8176C14.1924 49.8176 13.1629 49.7223 12.4239 49.6247C10.897 49.4225 9.82337 48.0212 10.0256 46.4943C10.2277 44.9675 11.6291 43.8938 13.1559 44.096C19.986 45.0024 22.8306 42.116 23.4348 40.2661C23.9786 38.5998 23.4557 36.6849 22.159 35.6136C20.3114 34.0844 17.7109 33.4918 15.201 34.0263L15.0407 34.0612C13.5394 34.4028 12.0451 33.4639 11.7011 31.9626C11.3595 30.4613 12.2984 28.967 13.7997 28.6231C13.8787 28.6045 13.9577 28.5882 14.0367 28.5696C18.1989 27.6842 22.5633 28.7091 25.7123 31.3142C28.7799 33.852 29.9953 38.1443 28.7358 41.9975C27.6691 45.2626 25.1569 47.6447 21.4757 48.8834C19.3284 49.6061 17.1717 49.8153 15.3939 49.8153V49.8176Z" fill="#FF9002"/>
<path d="M28.106 20.9099H14.2947C12.7539 20.9099 11.5059 19.6619 11.5059 18.1211C11.5059 16.5803 12.7539 15.3324 14.2947 15.3324H28.106C29.6468 15.3324 30.8947 16.5803 30.8947 18.1211C30.8947 19.6619 29.6468 20.9099 28.106 20.9099Z" fill="#FFC31B"/>
<path d="M40.8994 45.5299C35.882 45.5299 31.7988 41.4467 31.7988 36.4293C31.7988 31.4118 35.882 27.3286 40.8994 27.3286C45.9168 27.3286 50 31.4118 50 36.4293C50 41.4467 45.9168 45.5299 40.8994 45.5299ZM40.8994 32.9061C38.9566 32.9061 37.3763 34.4864 37.3763 36.4293C37.3763 38.3721 38.9566 39.9524 40.8994 39.9524C42.8422 39.9524 44.4225 38.3721 44.4225 36.4293C44.4225 34.4864 42.8422 32.9061 40.8994 32.9061Z" fill="#FF7800"/>
<path d="M47.2113 39.218C45.6705 39.218 44.4225 37.9701 44.4225 36.4293C44.4225 34.4864 42.8422 32.9061 40.8994 32.9061C38.9566 32.9061 37.3763 34.4864 37.3763 36.4293C37.3763 37.9701 36.1283 39.218 34.5875 39.218C33.0467 39.218 31.7988 37.9701 31.7988 36.4293C31.7988 31.4118 35.882 27.3286 40.8994 27.3286C45.9168 27.3286 50 31.4118 50 36.4293C50 37.9701 48.7521 39.218 47.2113 39.218Z" fill="#FF9002"/>
<path d="M40.8993 25.6322C39.3586 25.6322 38.1106 24.3842 38.1106 22.8434V13.4012C38.1106 11.8604 39.3586 10.6124 40.8993 10.6124C42.4401 10.6124 43.6881 11.8604 43.6881 13.4012V22.8434C43.6881 24.3842 42.4401 25.6322 40.8993 25.6322Z" fill="#FF7800"/>
<path fill-rule="evenodd" clip-rule="evenodd" d="M17.0834 26.4688V18.1211C17.0834 16.5803 15.8355 15.3324 14.2947 15.3324C12.7539 15.3324 11.5059 16.5803 11.5059 18.1211V32.5088C11.5059 33.2803 11.8197 33.9798 12.324 34.4841C12.8306 34.9884 13.5301 35.3022 14.3016 35.3022C15.8448 35.3022 17.095 34.0519 17.095 32.5088V26.4688H17.0834Z" fill="#FF7800"/>
<path d="M40.8993 20.9099C42.4395 20.9099 43.6881 19.6613 43.6881 18.1211C43.6881 16.5809 42.4395 15.3324 40.8993 15.3324C39.3592 15.3324 38.1106 16.5809 38.1106 18.1211C38.1106 19.6613 39.3592 20.9099 40.8993 20.9099Z" fill="#FFC31B"/>
<path d="M45.6193 20.9099H36.1771C34.6363 20.9099 33.3883 19.6619 33.3883 18.1211C33.3883 16.5803 34.6363 15.3324 36.1771 15.3324H45.6193C47.1601 15.3324 48.4081 16.5803 48.4081 18.1211C48.4081 19.6619 47.1601 20.9099 45.6193 20.9099Z" fill="#FFC31B"/>
<path d="M40.8993 20.9099H36.1771C34.6363 20.9099 33.3883 19.6619 33.3883 18.1211C33.3883 16.5803 34.6363 15.3324 36.1771 15.3324H40.8993C42.4401 15.3324 43.6881 16.5803 43.6881 18.1211C43.6881 19.6619 42.4401 20.9099 40.8993 20.9099Z" fill="#FFC31B"/>
</g>
</g>
<defs>
<clipPath id="clip0_310_4245">
<rect width="60" height="60" fill="white" transform="translate(0 0.612404)"/>
</clipPath>
<clipPath id="clip1_310_4245">
<rect width="40" height="39.2052" fill="white" transform="translate(10 10.6124)"/>
</clipPath>
</defs>
</svg>
