<svg width="60" height="61" viewBox="0 0 60 61" fill="none" xmlns="http://www.w3.org/2000/svg">
<g clip-path="url(#clip0_310_4195)">
<rect opacity="0.1" y="0.612404" width="60" height="60" rx="8" fill="#FF7800"/>
<g clip-path="url(#clip1_310_4195)">
<path fill-rule="evenodd" clip-rule="evenodd" d="M43.3445 17.0595C44.3209 18.0358 44.3209 19.6187 43.3445 20.5951L19.7743 44.1653C18.798 45.1416 17.2151 45.1416 16.2388 44.1653C15.2625 43.189 15.2625 41.6061 16.2388 40.6297L39.809 17.0595C40.7853 16.0832 42.3682 16.0832 43.3445 17.0595Z" fill="#FF7800"/>
<path d="M20.8333 13.1124C16.231 13.1124 12.5 16.8434 12.5 21.4457C12.5 26.0481 16.231 29.7791 20.8333 29.7791C25.4357 29.7791 29.1667 26.0481 29.1667 21.4457C29.1667 16.8434 25.4357 13.1124 20.8333 13.1124ZM20.8333 18.1124C22.6743 18.1124 24.1667 19.6048 24.1667 21.4457C24.1667 23.2867 22.6743 24.7791 20.8333 24.7791C18.9924 24.7791 17.5 23.2867 17.5 21.4457C17.5 19.6048 18.9924 18.1124 20.8333 18.1124Z" fill="#FFC31B"/>
<path d="M39.1667 31.4457C34.5643 31.4457 30.8334 35.1767 30.8334 39.7791C30.8334 44.3814 34.5643 48.1124 39.1667 48.1124C43.7691 48.1124 47.5 44.3814 47.5 39.7791C47.5 35.1767 43.7691 31.4457 39.1667 31.4457ZM39.1667 36.4457C41.0077 36.4457 42.5 37.9381 42.5 39.7791C42.5 41.62 41.0077 43.1124 39.1667 43.1124C37.3258 43.1124 35.8334 41.62 35.8334 39.7791C35.8334 37.9381 37.3258 36.4457 39.1667 36.4457Z" fill="#FF9100"/>
</g>
</g>
<defs>
<clipPath id="clip0_310_4195">
<rect width="60" height="60" fill="white" transform="translate(0 0.612404)"/>
</clipPath>
<clipPath id="clip1_310_4195">
<rect width="40" height="40" fill="white" transform="translate(10 10.6124)"/>
</clipPath>
</defs>
</svg>
