<?xml version="1.0" encoding="utf-8"?>
<!-- Generator: Adobe Illustrator 27.4.1, SVG Export Plug-In . SVG Version: 6.00 Build 0)  -->
<svg version="1.1" id="圖層_1" xmlns="http://www.w3.org/2000/svg" xmlns:xlink="http://www.w3.org/1999/xlink" x="0px" y="0px"
	 viewBox="0 0 80 80" style="enable-background:new 0 0 80 80;" xml:space="preserve">
<style type="text/css">
	.st0{fill:#FFFFFF;}
	.st1{fill:#FFEADE;}
	.st2{fill:#F9C07D;}
	.st3{fill:#FFDDA6;}
	.st4{fill:none;stroke:#868047;stroke-width:0.9337;stroke-linecap:round;stroke-linejoin:round;}
</style>
<rect class="st0" width="30" height="79.5"/>
<g>
	<g>
		<path class="st1" d="M65,29.6c0.4-0.1,0.7-0.1,1.1-0.1c0.6,0,1.2-0.2,1.7-0.3c0.6-0.2,1.3-0.4,1.9-0.1s0.7,1.1,0.5,1.7l0.2,0.1
			c-0.2,0.5-0.4,1-0.7,1.4c-0.3,0.5-0.7,1-0.9,1.6c-0.2,0.6-0.1,1.3,0.4,1.7c0.4,0.3,1,0.2,1.5,0c0.3-0.2,0.5-0.4,0.7-0.7h0.3
			c0.3,0.2,0.7,0,1-0.2c0.9-0.8,1.8-1.6,2.5-2.5c0.7-0.9,1.3-2,1.4-3.2c0-0.2,0-0.5,0-0.7h0.2c0,0.1,0.1,0.2,0.1,0.3l0,0
			c0.1,0.1,0.3,0.2,0.4,0.3c0.9,1.1,0.8,2.7,0.1,3.9c-0.7,1.2-2,1.9-3.2,2.4c-0.2,0.1-0.5,0.2-0.7,0.1c-0.1,0-0.1,0-0.2-0.1
			l-0.1,0.1c-0.2,0.3-0.5,0.7-0.9,1c-0.2,0.7-0.4,1.3-0.8,1.9h-0.1c-0.3,0.7-0.7,1.8-0.8,2.4c-0.2,4-0.1,5.8,0.2,10.2
			c0.1,2.3,0.3,4.1,0.2,5.7c0,0.3-0.1,0.7-0.2,1l0.1,0.2c-0.2,0.3-0.5,0.6-0.7,0.9l0,0c-0.3,0.5-0.7,1-1.2,1.3
			c-0.3,0.2-0.7,0.4-1.1,0.5c-1.4,0.4-2.7,0.1-4-0.6c-1.3-0.7-2.3-1.9-2.7-3.3c-0.1-0.2-0.1-0.4,0.1-1.1h0.2c0-0.3,0-0.5,0.1-0.8
			l0,0c0-0.1,0.1-0.3,0.1-0.4c1.5-6,2.8-9.2,2.9-14.6c0-0.9-0.6-2.3-0.9-3.4l0,0c-0.3-0.7-0.4-1.5-0.3-2.3h0.1c0-0.5-0.1-1,0-1.5
			c0-0.9,0.2-1.8,1-2.3C64.5,29.7,64.8,29.7,65,29.6z"/>
		<path class="st1" d="M75.5,25.5l0.5,0.8c0.2,0.1,0.3,0.3,0.4,0.5c0.2,0.5,0.3,0.9,0.3,1.4c0,0.2,0,0.5,0,0.7
			c-0.1,1.2-0.7,2.3-1.4,3.2c-0.7,0.9-1.6,1.7-2.5,2.5c-0.3,0.2-0.7,0.5-1,0.2h-0.3c0.1-0.2,0.2-0.3,0.4-0.5
			c1.8-2.5,2.9-5.5,3.6-8.5c0-0.1,0.1-0.2,0-0.4C75.5,25.5,75.5,25.5,75.5,25.5z"/>
		<path class="st2" d="M33.5,42.1c0.3-0.2,0.5-0.4,0.5-0.7c0.6,0.9,1.5,1.7,2.7,2.3c1.6,0.8,4.5,1.7,5.9,2.8c1.5,1.2,2.2,3.2,2,5.1
			h0.1c0,1,0,2,0.3,2.9c0.3,0.7,0.7,1.3,1.4,1.7c0.4,1,1.1,1.9,1.9,2.7c0.1,0.1,0.2,0.2,0.3,0.3c0.6,0.4,1.3,0.6,2,0.5
			c0.4,0,0.8-0.2,1.1-0.3c0.3,0.1,0.7,0.2,1.1,0.3v-0.3c0.2,0.1,0.5-0.1,0.7-0.4c0.7-0.9,1.2-2.1,1.3-3.2c0.1-0.4,0.1-0.7,0-1.1
			h-0.1c0.1-0.9,0.2-1.8,0.2-2.7c0.1,0.2,0.2,0.4,0.3,0.5c1.4,1.2,2.5,2.1,3.7,3.4l0.1-0.1c0.3,0.2,0.6,0.5,0.9,0.7H60
			c0.1-0.2,0.2-0.5,0.2-0.7c0.1-0.5,0.3-1.2,0.8-1.4v-0.1c0.3,0,0.5-0.1,0.8-0.1c0,0.1-0.1,0.3-0.1,0.4l0,0c0,0.3,0,0.5-0.1,0.8
			h-0.2c-0.2,0.6-0.1,0.8-0.1,1.1c0.4,1.4,1.4,2.6,2.7,3.3c1.3,0.7,2.6,1,4,0.6c0.4-0.1,0.8-0.3,1.1-0.5c0.5-0.3,0.8-0.8,1.2-1.3
			l0,0c0.3-0.3,0.5-0.6,0.7-0.9l0-0.3c0.1-0.3,0.2-0.6,0.2-1l0,0c0.2,0.4,0.3,0.7,0.4,1.1h0.1c-0.2,3-0.9,5.9-1.6,8.9
			c-0.5,2.1-1.1,4.3-2.6,5.9c-0.6,0.6-1.2,1.1-2,1.4c-0.8,0.2-1.6,0.1-2.4-0.1c-4.3-1-10.4-5-13.5-8.1l0,0c-0.2-0.2-0.5-0.4-0.7-0.6
			l0,0c-0.2,4.9-1.4,10.4-2.2,15c-0.7,3.9-0.2,9,0,13H11.4l0,0c0.5-3,2-8.2,1.5-11.2l0,0c0-0.3-0.1-0.5-0.2-0.8
			c1.2,0.8,2.4,1.1,3.9,0.7c1.4-0.4,1.6-0.5,2.3-1.8c2.9-4.8,3.6-8.4,4.3-12.9c0,0,0.2-1-0.1-1.5c0-0.1-0.1-0.2-0.2-0.2L23,65
			c1.1-4.4,1.5-8.7,2.3-13.6c0.4-2.3,0.4-4.7,0.7-7.1c0-0.2,0-0.3,0.1-0.5h0.1C28.8,44.2,31.3,43.5,33.5,42.1L33.5,42.1z"/>
		<path class="st1" d="M66.1,29.5c-0.4,0-0.7,0-1.1,0.1c0-0.1,0.1-0.2,0.1-0.3c1-1.2,1.3-2.8,2.1-4.1c0.5-0.8,1.2-1.4,1.9-2
			c1.1-1.1,2.2-2.2,3.2-3.5c1.8-2.1,3-3.8,5.3-5.8c0.2-0.2,0.8-0.4,1-0.4c2.5,0-1.5,4.7-1.8,5.2c-0.8,1.1-2.2,2.9-3.2,4.1
			c0,0.2,0,0.4-0.1,0.6l0,0c0.6,0.4,1.2,1,1.6,1.7c0.1,0.1,0.1,0.2,0.2,0.4v0.1c0,0.1,0,0.2,0,0.4c-0.7,3-1.9,5.9-3.6,8.5
			c-0.1,0.2-0.2,0.3-0.4,0.5c-0.2,0.3-0.4,0.5-0.7,0.7c-0.5,0.3-1.1,0.3-1.5,0c-0.5-0.4-0.6-1.1-0.4-1.7c0.2-0.6,0.6-1.1,0.9-1.6
			c0.3-0.4,0.5-0.9,0.7-1.4l-0.2-0.1c0.2-0.6,0.1-1.4-0.5-1.7c-0.6-0.3-1.3-0.1-1.9,0.1C67.3,29.3,66.7,29.4,66.1,29.5z"/>
		<path class="st3" d="M43.5,23.8L43.5,23.8c-0.2,1.1-1.1,2.7-2.2,3c-0.7,0.3-1.6,0.2-2.3-0.2c0.1-0.4,0.1-0.8,0.1-1.1h0.1
			c0.3-1.1,0.5-2.2,0.5-3.3h0.2C40,21.6,40,21,40,20.4l0,0c0.6-0.3,1.6-0.3,2.2,0.1l0.2-0.1C42.9,21.4,43.3,22.6,43.5,23.8z"/>
		<path class="st1" d="M39.7,22.2c0,1.1-0.2,2.2-0.5,3.3h-0.1c0,0.4,0,0.8-0.1,1.1c-0.3-0.2-0.6-0.4-0.8-0.6
			c-0.8-0.9-0.9-2.2-0.5-3.3c0.4-1.1,1.2-1.9,2.3-2.4c0,0.6-0.1,1.2-0.1,1.8L39.7,22.2z"/>
		<path class="st1" d="M28.6,26.2c0.4,0,0.9-0.1,1.3-0.3c0.3-0.1,0.5-0.2,0.7-0.5c0.2-0.2,0.2-0.6,0-0.8c-0.1-0.1-0.3-0.1-0.4-0.1
			c-0.7-0.1-1.5-0.2-2.2-0.2c0.1-0.4,0-1,0-1.3v-0.1c0-0.1,0-0.1,0-0.2c0.2-0.1,0.5-0.3,0.7-0.5c0.5-0.4,1-1,0.7-1.6l-0.1-0.1h-0.1
			c-0.7,0-1.5,0.1-2.2,0.3c-0.1-0.2-0.1-0.4-0.1-0.6c0-0.3,0-0.6-0.1-0.8c-0.1-0.3-0.2-0.5-0.5-0.6c-0.3,0-0.6,0.3-0.7,0.5
			c-0.5,0.8-1,1.5-1.6,2.3c-0.1,0.2-0.2,0.3-0.2,0.5c-0.4,0.2-0.7,0.4-1.1,0.6c-0.3,0.2-0.7,0.4-1,0.6c-0.2,0.2-0.4,0.4-0.6,0.6
			c-0.7,0.7-1.2,1.3-1.8,1.9l0,0c-0.1-0.4-0.3-1.2-0.2-1.6c0.8-1.2,1.3-2.7,1.4-4.2c0-0.1,0-0.3,0-0.4h0.1c0.4-0.1,0.8-0.2,1.2-0.4
			l0,0c3.6-0.7,4.8-4.5,5.3-7.7c0.1-1,0.3-2.1,1.4-2.5h0.1c0.2-0.3,0.6-0.4,1-0.5c0.5,0,0.9,0.1,1.4-0.1c0.3-0.1,0.5-0.2,0.7-0.3
			h0.2c0.7-0.6,2-0.9,2.9-0.6c1,0.3,1.8,1.2,2.4,2c0.7,0.9,1.4,1.9,1.8,3c0.5,1.3,0.7,2.9,1.3,4.1c0,0.2-0.1,0.3-0.1,0.5l0,0
			c-0.1,0.4-0.2,0.9-0.3,1.3H40c0,0.6,0,1.2,0,1.8c-1.1,0.4-1.9,1.3-2.3,2.4c-0.4,1.1-0.3,2.4,0.5,3.3c0.2,0.2,0.5,0.5,0.8,0.6
			c-0.1,0.3-0.2,0.7-0.3,1c-0.1,0.2-0.2,0.5-0.3,0.7c-0.7,2-2.5,3.7-4.1,5c-0.3,0.2-0.6,0.5-1,0.7c0,0.2-0.1,0.4-0.1,0.6l0,0
			c-0.8,2.5-0.5,4.9,0.8,6.8c-0.1,0.3-0.3,0.6-0.5,0.7l0,0c-2.2,1.4-4.7,2.1-7.3,1.7h-0.1c0-0.1,0-0.2,0-0.3c0.3-1.6,0.7-3.2,1-4.9
			s1-2.6,1.2-4.4C28.4,33,28.2,32,28,31c-0.2-0.9-0.3-1.8-0.5-2.7l0,0c0-0.2,0-0.3,0.1-0.5h0.1c0.5-0.1,1-0.4,1.1-0.9
			c0-0.1,0-0.1,0-0.2s-0.1-0.1-0.2-0.1c-0.2-0.1-0.3-0.2-0.5-0.3l0.1-0.1C28.3,26.2,28.5,26.2,28.6,26.2z M37.8,20.9
			c0.3-0.1,0.4-0.5,0.4-0.8s-0.4-0.4-0.5-0.1c-0.1,0.2-0.1,0.5-0.1,0.6v0.1C37.6,20.9,37.8,20.9,37.8,20.9z M30.1,19.8
			c0.3-0.1,0.4-0.6,0.4-0.9c-0.1-0.4-0.4-0.4-0.5-0.1s-0.1,0.6-0.1,0.7v0.1C29.8,19.8,30,19.9,30.1,19.8z"/>
		<path class="st1" d="M25.6,23.8c0,0.2-0.1,0.5-0.4,0.5l0,0c-0.1,0-0.2,0-0.3,0v-0.2C25,24.1,25.3,24,25.6,23.8z"/>
		<path class="st1" d="M27,20.9c-1.1,0.3-2.2,0.8-3.2,1.3c0.1-0.2,0.2-0.3,0.2-0.5c0.5-0.8,1-1.6,1.6-2.3c0.2-0.3,0.4-0.6,0.7-0.5
			c0.3,0,0.4,0.3,0.5,0.6c0.1,0.3,0.1,0.6,0.1,0.8C26.9,20.5,26.9,20.7,27,20.9z"/>
		<path class="st1" d="M23.2,65.3c-0.1,0.1-0.1,0.3-0.2,0.4l-0.2-0.1c0-0.2,0.1-0.4,0.1-0.5H23C23.1,65.1,23.2,65.2,23.2,65.3z"/>
		<path class="st1" d="M24.8,27.8c-0.8,0-1.5,0.2-1.9,0.8c-0.2,0.3-0.3,0.6-0.4,1h0.1c0.1,0.2,0.3,0.3,0.5,0.2V30
			c0.2,0,0.3-0.1,0.4-0.1c0.2-0.1,0.4-0.2,0.5-0.3c0.2-0.1,0.3-0.3,0.3-0.4c0.2-0.3,0.3-0.7,0.3-1.1h0.2
			C24.9,27.9,24.8,27.8,24.8,27.8z M14.1,58.9c0.1-0.2,0.1-0.4,0.2-0.6c1.2-3.2,2.4-6.5,3.7-9.7c0.7-1.7,1.3-3.4,1.8-5.1
			c0.1-0.2,0.1-0.4,0.2-0.7c0.3-1,0.5-2,0.7-3c0.2-0.6,0.3-0.7,0.3-1.4s-0.3-1.2-0.7-1.8c-0.2-0.3-0.4-0.6-0.6-0.9
			c-0.3-0.4-0.6-0.9-0.9-1.3c-0.4-0.5-0.8-1-1.2-1.5c-0.5-0.5-1.1-1.5-1.2-2.1h0.1c-0.1-0.3-0.1-0.6-0.1-0.9h-0.1
			c0-0.4,0.2-1.1,0.4-1.4c1-1,1.7-1.8,2.5-2.7c0.5-0.6,1.1-1.2,1.8-1.9c0.2-0.2,0.4-0.4,0.6-0.6c0.3-0.2,0.6-0.4,1-0.6
			s0.7-0.4,1.1-0.6c1-0.5,2.1-1,3.2-1.3c0.7-0.2,1.4-0.3,2.2-0.3h0.1l0.1,0.1c0.3,0.6-0.2,1.2-0.7,1.6c-0.2,0.2-0.5,0.3-0.7,0.5
			c-0.3,0.1-0.6,0.3-0.9,0.4c-0.4,0.2-1,0.4-1.5,0.7c-0.3,0.1-0.5,0.3-0.7,0.4v0.2c0.1,0,0.2,0,0.3,0c0.9-0.1,1.8-0.1,2.8,0
			c0.7,0,1.5,0.1,2.2,0.2c0.1,0,0.3,0,0.4,0.1c0.2,0.2,0.2,0.6,0,0.8c-0.2,0.2-0.5,0.4-0.7,0.5c-0.4,0.2-0.9,0.3-1.3,0.3
			c-0.1,0-0.3,0-0.4,0L28,26.4c0.2,0.1,0.3,0.2,0.5,0.3c0.1,0,0.1,0.1,0.2,0.1c0,0.1,0,0.1,0,0.2c-0.1,0.5-0.6,0.8-1.1,0.9h-0.1
			c0,0.2,0,0.3-0.1,0.5l0,0c0.2,0.9,0.3,1.8,0.5,2.7c0.2,1,0.4,2.1,0.3,3.1c-0.1,1.8-0.8,2.7-1.2,4.4c-0.3,1.6-0.7,3.2-1,4.9
			c0,0.1,0,0.2,0,0.3c0,0.2-0.1,0.3-0.1,0.5c-0.3,2.4-0.3,4.8-0.7,7.1c-0.8,4.9-1.2,9.2-2.3,13.6c0,0.2-0.1,0.4-0.1,0.5l0.2,0.1
			c0,0.1-0.1,0.2-0.1,0.2l-0.1-0.1c-0.9,0.2-2.2,0-3-0.5c-1.5-0.8-1.8-1.1-3.1-2.2C15.6,62.3,14.2,60.4,14.1,58.9L14.1,58.9z"/>
		<path class="st1" d="M19.7,36.2L19.7,36.2c0-0.1,0-0.3,0-0.4l0,0c0.2,0.3,0.4,0.6,0.6,0.9c0.3,0.6,0.7,1.1,0.7,1.8
			s-0.1,0.7-0.3,1.4c-0.2,1-0.5,2-0.7,3l0,0c-0.1,0-0.1,0-0.2-0.1l0,0c-0.4-0.2-0.9-0.4-1.3-0.6c-0.2-0.2-0.5-0.3-0.6-0.5
			c-0.1-0.1-0.3-0.3-0.3-0.4c0-0.1-0.1-0.2-0.1-0.2c0-0.1,0.1-0.2,0.3-0.3c0,0,0,0,0.1,0C19,39.9,19.6,37.7,19.7,36.2z"/>
		<path class="st2" d="M12.7,80.8c-0.9-0.6-1.7-1.4-2.4-2.3c-2-2.3-2.9-5-4.1-7.9c-1.6-4-3.4-7.9-4.3-12.2c-0.8-3.8-2.4-8-0.8-11.8
			c1.2-3.1,3.7-3.6,6.7-4.4c1.7-0.5,3.5-0.7,5.2-1c1-0.2,1.9-0.5,2.9-0.6c0.3,0,1-0.1,1.4-0.1c0,0.2,0,0.3,0,0.5h0.1
			c0,0.1,0,0.1,0.1,0.2c0.1,0.2,0.2,0.3,0.3,0.4c0.2,0.2,0.4,0.4,0.6,0.5c0.4,0.3,0.8,0.5,1.3,0.6l0,0c0.1,0,0.1,0,0.2,0.1l0,0
			c-0.1,0.2-0.1,0.4-0.2,0.7c-0.5,1.8-1.1,3.5-1.8,5.1c-1.3,3.2-2.5,6.5-3.7,9.7c-0.1,0.2-0.1,0.4-0.2,0.6h-0.1
			c0.2,1.4,1.6,3.3,2.7,4.2c1.3,1,1.6,1.4,3.1,2.2c0.9,0.5,2.1,0.8,3,0.5l0.1,0.1c0-0.1,0.1-0.2,0.1-0.2c0.1-0.1,0.1-0.3,0.2-0.4
			c0.2,0.5,0.1,1.5,0.1,1.5c-0.7,4.6-1.5,8.1-4.3,12.9c-0.7,1.2-1,1.4-2.3,1.8C15.2,81.9,13.9,81.5,12.7,80.8z"/>
		<path class="st3" d="M20.5,19.6c0,0.1,0,0.3,0,0.4c-0.1,1.5-0.6,2.9-1.4,4.2c-0.1,0.5,0.1,1.2,0.2,1.6l0,0
			c-0.8,0.9-1.5,1.7-2.5,2.7c-0.3,0.3-0.5,1-0.4,1.4h0.1c0,0.3,0,0.6,0.1,0.9h-0.1c0.1,0.7,0.7,1.6,1.2,2.1c0.4,0.5,0.8,1,1.2,1.5
			c-0.3,0-0.6,0-0.8,0c-3.2-1.1-4.1-5.7-4.1-7.3c0-1.3,0.4-2.4,0.7-3.6c1.4-5.2,0.9-10.9,3.4-15.8c1.8-3.5,7.1-9,11.5-6.9
			c0.8-0.3,1.7-0.4,2.5-0.2C38-1.2,41.7,8.3,43,12.5c1.1,3.4,2.8,6.5,3.8,9.8c1,3.4,0.4,6.2-0.5,9.5c-0.6,2.1-1.6,4.8-0.6,7h-0.2
			c0.1,1.1,0.2,2.3,0.3,3.4c0.9,1.4,2.3,2.5,3.6,2.9c2.8,0.9,4.8,2.3,5.3,5.4c0.1,0.4,0.1,0.8,0.1,1.2c0,0.9,0,1.8-0.2,2.7h0.1
			c0.1,0.3,0.1,0.7,0,1.1c-0.2,1.2-0.7,2.3-1.3,3.2c-0.2,0.2-0.4,0.5-0.7,0.4v0.3c-0.4,0-0.7-0.1-1.1-0.3c-0.3,0.2-0.7,0.3-1.1,0.3
			c-0.7,0.1-1.4-0.1-2-0.5c-0.1-0.1-0.2-0.2-0.3-0.3c-0.8-0.7-1.4-1.7-1.9-2.7c-0.6-0.4-1.1-1-1.4-1.7c-0.3-0.9-0.4-1.9-0.3-2.9
			h-0.1c0.3-1.9-0.5-3.9-2-5.1c-1.4-1.1-4.3-2-5.9-2.8c-1.1-0.6-2-1.3-2.7-2.3c-1.3-1.9-1.6-4.3-0.8-6.8l0,0
			c0.1-0.2,0.1-0.4,0.1-0.6c0.3-0.2,0.7-0.4,1-0.7c1.6-1.3,3.3-3,4.1-5c0.1-0.2,0.3-0.4,0.3-0.7c0.1-0.3,0.2-0.7,0.3-1
			c0.7,0.4,1.5,0.5,2.3,0.2c1.1-0.4,2-1.9,2.1-3h0.1c-0.2-1.2-0.5-2.3-1-3.4l-0.2,0.1c-0.6-0.4-1.6-0.3-2.2-0.1l0,0
			c0-0.6,0-1.2,0-1.8h-0.1c0.1-0.4,0.2-0.9,0.3-1.3l0,0c0-0.2,0.1-0.3,0.1-0.5c-0.6-1.2-0.8-2.8-1.3-4.1c-0.4-1.1-1.1-2.1-1.8-3
			c-0.6-0.8-1.4-1.7-2.4-2c-0.9-0.2-2.2,0.1-2.9,0.6h-0.2c-0.2,0.2-0.4,0.3-0.7,0.3c-0.4,0.1-0.9,0-1.4,0.1c-0.4,0-0.8,0.2-1,0.5
			h-0.1c-1.1,0.4-1.3,1.5-1.4,2.5c-0.5,3.1-1.7,6.9-5.3,7.7l0,0C21.4,19.2,21,19.4,20.5,19.6L20.5,19.6z"/>
		<path class="st4" d="M19.6,28.4c0.7-0.8,1.5-1.5,2.2-2.2c0.2-0.2,0.4-0.3,0.6-0.4c0.3-0.1,0.6-0.1,0.9-0.2c1-0.1,2-0.1,3,0.1
			c0.6,0.1,1.2,0.4,1.7,0.7c0.2,0.1,0.3,0.2,0.5,0.3c0.1,0,0.1,0.1,0.2,0.1c0,0.1,0,0.1,0,0.2c-0.1,0.5-0.6,0.8-1.1,0.9h-0.1
			c-0.5,0.1-0.9,0-1.4-0.1c-0.4,0-0.9-0.1-1.5-0.1c-0.8,0-1.5,0.2-1.9,0.8c-0.2,0.3-0.3,0.6-0.4,1s-0.2,0.7-0.3,1.1
			c0.7,0.8,1.4,1.5,2.2,2.2c0.2,0.2,0.5,0.4,0.7,0.6c0.6,0.6,0.9,1.4,1,2.2"/>
		<path class="st4" d="M18.3,28.2c0.8-0.8,1.6-1.5,2.4-2.3c0.3-0.3,0.7-0.6,1-0.8c0.7-0.4,1.4-0.5,2.2-0.6c0.3,0,0.6-0.1,0.9-0.1
			c0.1,0,0.2,0,0.3,0c0.9-0.1,1.8-0.1,2.8,0c0.7,0,1.5,0.1,2.2,0.2c0.1,0,0.3,0,0.4,0.1c0.2,0.2,0.2,0.6,0,0.8
			c-0.2,0.2-0.5,0.4-0.7,0.5c-0.4,0.2-0.9,0.3-1.3,0.3c-0.1,0-0.3,0-0.4,0"/>
		<path class="st4" d="M16.5,29.9c0-0.4,0.2-1.1,0.4-1.4c1-1,1.7-1.8,2.5-2.7c0.5-0.6,1.1-1.2,1.8-1.9c0.2-0.2,0.4-0.4,0.6-0.6
			c0.3-0.2,0.6-0.4,1-0.6s0.7-0.4,1.1-0.6c1-0.5,2.1-1,3.2-1.3c0.7-0.2,1.4-0.3,2.2-0.3h0.1l0.1,0.1c0.3,0.6-0.2,1.2-0.7,1.6
			c-0.2,0.2-0.5,0.3-0.7,0.5c-0.3,0.1-0.6,0.3-0.9,0.4c-0.4,0.2-1,0.4-1.5,0.7c-0.3,0.1-0.5,0.3-0.7,0.4"/>
		<path class="st4" d="M22.6,30c0.1,0,0.3,0,0.5,0s0.3-0.1,0.4-0.1c0.2-0.1,0.4-0.2,0.5-0.3c0.2-0.1,0.3-0.3,0.3-0.4
			c0.2-0.3,0.3-0.7,0.3-1.1"/>
		<path class="st4" d="M28,23c0,0.3,0.1,1,0,1.3c0,0,0,0,0,0.1"/>
		<path class="st4" d="M23.8,22c0.1-0.1,0.1-0.2,0.2-0.3c0.5-0.8,1-1.6,1.6-2.3c0.2-0.3,0.4-0.6,0.7-0.5c0.3,0,0.4,0.3,0.5,0.6
			c0.1,0.3,0.1,0.6,0.1,0.8c0,0.2-0.1,0.3-0.1,0.5"/>
		<path class="st4" d="M29.4,22c0.8-1.6,2.8-2.7,4.1-2.3c0.4,0.1,0.8,0.2,1.1,0.5s0.4,0.8,0.5,1.2c0.2,1.2-0.1,2.4-0.7,3.4
			c-0.6,1-1.4,1.9-2.6,2.2c-0.7,0.2-1.7,0.1-2.1-0.5"/>
		<path class="st4" d="M29,24.2c-0.1-0.7,0-1.4,0.2-2"/>
		<path class="st4" d="M35.2,22.7c0.3-0.1,0.7-0.2,1.1-0.1c0.3,0,0.6,0.2,0.9,0.3"/>
		<path class="st4" d="M42.3,20.4c-0.6-0.4-1.6-0.3-2.2-0.1l0,0c-1.1,0.4-1.9,1.3-2.3,2.4c-0.4,1.1-0.3,2.4,0.5,3.3
			c0.2,0.2,0.5,0.5,0.8,0.6c0.7,0.4,1.5,0.5,2.3,0.2c1.1-0.4,2-1.9,2.1-3"/>
		<path class="st4" d="M29.9,18.9c0.1-0.4,0.5-0.3,0.5,0.1c0,0.3,0,0.8-0.4,0.9c-0.1,0-0.2,0-0.3-0.1v-0.1
			C29.8,19.5,29.8,19.1,29.9,18.9z"/>
		<path class="st4" d="M37.8,20c0.1-0.3,0.4-0.2,0.5,0.1c0,0.3-0.1,0.7-0.4,0.8c-0.1,0-0.2,0-0.2-0.1v-0.1
			C37.6,20.6,37.7,20.3,37.8,20z"/>
		<path class="st4" d="M35.9,20.4c0,0.4,0,0.8,0.1,1.2c0,0.3,0.1,0.6,0.3,0.8l0.1,0.1c0.1,0.1,0.1,0.2,0.2,0.2
			c0.4,0.5,0.4,1.3,0,1.8c-0.1,0.2-0.3,0.3-0.5,0.5l-0.3,0.2"/>
		<path class="st4" d="M28.6,33.3c1,0.7,2.1,0.9,3.2,0.9c0.4,0,0.8,0,1.2-0.1c0.1,0,0.2-0.1,0.3-0.1c0.3-0.2,0.7-0.4,1-0.7
			c1.6-1.3,3.3-3,4.1-5c0.1-0.3,0.2-0.6,0.2-0.8"/>
		<path class="st4" d="M39.2,25.5c0.3-1.1,0.5-2.2,0.5-3.3c0-0.2,0-0.3,0-0.5"/>
		<path class="st4" d="M29,14.7c2.1-0.7,3.1,0.2,4.3,1"/>
		<path class="st4" d="M37.7,15.8c0.5-0.3,1.3-0.3,1.8,0.1"/>
		<path class="st4" d="M31.4,28.5c0.4,0.7,2.6,1,3.1,0.6"/>
		<path class="st4" d="M28.6,9.1c-1.1,0.4-1.3,1.5-1.4,2.5c-0.5,3.1-1.7,6.9-5.3,7.7"/>
		<path class="st4" d="M30.2,8.3c-0.3-1.5,0.1-2.9,1.3-3.8"/>
		<path class="st4" d="M31.9,8.3c0.7-0.6,2-0.9,2.9-0.6c1,0.3,1.8,1.2,2.4,2c0.7,0.9,1.4,1.9,1.8,3c0.5,1.3,0.7,2.9,1.3,4.1
			c0.5,0.9,1.2,1.7,2.6,1.9"/>
		<path class="st4" d="M29.5,0.9L29.5,0.9C25.1-1.2,19.8,4.3,18,7.8c-2.5,4.9-2,10.6-3.4,15.8c-0.3,1.2-0.8,2.3-0.7,3.6
			c0,1.5,0.9,6.2,4.1,7.3c0.2,0.1,0.5,0.1,0.8,0.2"/>
		<path class="st4" d="M22.4,14.3c-1.3,1.6-1.7,3.4-1.9,5.3c0,0.1,0,0.3,0,0.4c-0.1,1.5-0.6,2.9-1.4,4.2c-0.1,0.2-0.2,0.4-0.4,0.6"
			/>
		<path class="st4" d="M31.5,0.9c0.2-0.1,0.4-0.1,0.6-0.2C38-1.1,41.7,8.4,43,12.6c1.1,3.4,2.8,6.5,3.8,9.8c1,3.4,0.4,6.2-0.5,9.5
			c-0.6,2.1-1.6,4.8-0.6,7c0.2,0.5,0.6,1,1,1.4"/>
		<path class="st4" d="M33.2,34.4L33.2,34.4c-0.8,2.6-0.5,5,0.8,6.9c0.6,0.9,1.5,1.7,2.7,2.3c1.6,0.8,4.5,1.7,5.9,2.8
			c1.5,1.2,2.2,3.2,2,5.1c-0.1,0.6-0.3,1.3-0.6,1.8"/>
		<path class="st4" d="M45.8,48.5c0.7,1.5,0.1,3.2,0.1,4.8c0,0.9,0.2,1.9,0.5,2.8c0.4,1,1.1,1.9,1.9,2.7c0.1,0.1,0.2,0.2,0.3,0.3
			c0.3,0.3,0.7,0.5,1.1,0.7"/>
		<path class="st4" d="M44.8,40.2c0.1,0.7,0.5,1.5,1,2.2c0.9,1.4,2.3,2.5,3.6,2.9c2.8,0.9,4.8,2.3,5.3,5.4c0.1,0.4,0.1,0.8,0.1,1.2
			c0,0.9,0,1.8-0.2,2.7c-0.1,0.5-0.2,0.9-0.3,1.4"/>
		<path class="st4" d="M42.3,19.9c0.1,0.1,0.1,0.3,0.2,0.4c0.4,1.1,0.8,2.3,1,3.4c0,0.1,0,0.1,0,0.2c0.2,1.2,0.3,2.5-0.2,3.6
			c-0.4,1.1-1.2,1.9-1.9,2.8c-0.6,0.9-1.1,1.8-1.4,2.8"/>
		<path class="st4" d="M48.2,55.4c0.4,1.7,1.8,3.2,3.5,3.8c0.3,0.1,0.7,0.2,1.1,0.3c0,0,0,0,0.1,0"/>
		<path class="st4" d="M49.5,65.5c3.1,3.1,9.3,7.2,13.5,8.1c0.8,0.2,1.6,0.3,2.4,0.1c0.8-0.2,1.5-0.7,2-1.4c1.5-1.6,2.1-3.8,2.6-5.9
			c0.7-3,1.4-5.9,1.6-8.9c0-0.4,0-0.7,0-1.1"/>
		<path class="st4" d="M55.1,52.3L55.1,52.3c1.5,1.2,2.5,2.1,3.7,3.4c0.2,0.2,0.3,0.4,0.5,0.6"/>
		<path class="st4" d="M60.9,54.3c-0.5,0.2-0.7,0.8-0.8,1.4c-0.1,0.2-0.1,0.5-0.2,0.7c-0.8,2.1-2.4,4-2.4,6.3"/>
		<path class="st4" d="M61.4,55.2c-0.2,0.6-0.1,0.8-0.1,1.1c0.4,1.4,1.4,2.6,2.7,3.3c1.3,0.7,2.6,1,4,0.6c0.4-0.1,0.8-0.3,1.1-0.5
			c0.5-0.3,0.8-0.8,1.2-1.3l0.1-0.1"/>
		<path class="st4" d="M61.6,54.4c0-0.1,0.1-0.3,0.1-0.4c1.5-6,2.8-9.2,2.9-14.6c0-0.9-0.6-2.3-0.9-3.4c-0.1-0.3-0.1-0.5-0.1-0.7"/>
		<path class="st4" d="M63.5,34.3c0-0.2-0.1-0.4-0.1-0.6c0-0.5-0.1-1,0-1.5c0-0.9,0.2-1.8,1-2.3c0.2-0.1,0.4-0.2,0.7-0.3
			c0.4-0.1,0.7-0.1,1.1-0.1c0.6,0,1.2-0.2,1.7-0.3c0.6-0.2,1.3-0.4,1.9-0.1s0.7,1.1,0.5,1.7c0,0.1,0,0.1-0.1,0.2
			c-0.3,0.6-0.9,1.1-1.6,1.4c-0.6,0.3-1.8,1-2.4,0.7"/>
		<path class="st4" d="M71,57.4c0.1-0.3,0.2-0.6,0.2-1c0.2-1.6,0-3.4-0.2-5.7c-0.2-4.5-0.4-6.3-0.2-10.2c0-0.6,0.5-1.7,0.8-2.4
			c0.1-0.2,0.1-0.4,0.2-0.5"/>
		<path class="st4" d="M64.9,29.5c0.1-0.1,0.1-0.2,0.2-0.2c1-1.2,1.3-2.8,2.1-4.1c0.5-0.8,1.2-1.4,1.9-2c1.1-1.1,2.2-2.2,3.2-3.5
			c1.8-2.1,3-3.8,5.3-5.8c0.2-0.2,0.8-0.4,1-0.4c2.5,0-1.5,4.7-1.8,5.2c-0.8,1.1-2.2,2.9-3.2,4.1c-0.1,0.1-0.2,0.3-0.3,0.4"/>
		<path class="st4" d="M69.8,26.5c0.2,0.4,0.3,0.8,0.5,1.1c0.1,0.3,0.3,0.6,0.6,0.8"/>
		<path class="st4" d="M71.8,34.9c0.3,0.2,0.7,0,1-0.2c0.9-0.8,1.8-1.6,2.5-2.5c0.7-0.9,1.3-2,1.4-3.2c0-0.2,0-0.5,0-0.7
			c0-0.5-0.2-1-0.3-1.4c-0.1-0.2-0.2-0.4-0.4-0.5h-0.1"/>
		<path class="st4" d="M73.1,34.7c0,0.2,0.1,0.3,0.3,0.4c0.1,0,0.1,0.1,0.2,0.1c0.2,0,0.5,0,0.7-0.1c1.3-0.5,2.5-1.3,3.2-2.4
			c0.7-1.2,0.8-2.8-0.1-3.9c-0.1-0.1-0.2-0.2-0.4-0.3"/>
		<path class="st4" d="M72.1,36.6c0.1-0.1,0.2-0.3,0.3-0.4c0.3-0.4,0.6-0.7,0.9-1"/>
		<path class="st4" d="M67.2,35.8c0.6-0.1,1.1-0.3,1.5-0.7"/>
		<path class="st4" d="M71.4,25.8c-0.2,1.7-0.4,3.4-1,5c-0.2,0.5-0.4,1-0.7,1.4c-0.3,0.5-0.7,1-0.9,1.6c-0.2,0.6-0.1,1.3,0.4,1.7
			c0.4,0.3,1,0.2,1.5,0c0.3-0.2,0.5-0.4,0.7-0.7c0.1-0.2,0.2-0.3,0.4-0.5c1.8-2.5,2.9-5.5,3.6-8.5c0-0.1,0.1-0.2,0-0.4v-0.1
			c0-0.1-0.1-0.2-0.2-0.4c-0.4-0.7-1-1.2-1.6-1.7l0,0c-0.2-0.1-0.5-0.1-1.1-0.1"/>
		<path class="st4" d="M14.1,58.9c0.1-0.2,0.1-0.4,0.2-0.6c1.2-3.2,2.4-6.5,3.7-9.7c0.7-1.7,1.3-3.4,1.8-5.1
			c0.1-0.2,0.1-0.4,0.2-0.7c0.3-1,0.5-2,0.7-3c0.2-0.6,0.3-0.7,0.3-1.4s-0.3-1.2-0.7-1.8c-0.2-0.3-0.4-0.6-0.6-0.9
			c-0.3-0.4-0.6-0.9-0.9-1.3c-0.4-0.5-0.8-1-1.2-1.5c-0.5-0.5-1.1-1.5-1.2-2.1"/>
		<path class="st4" d="M22.8,65.6c0-0.2,0.1-0.4,0.1-0.5c1.1-4.4,1.5-8.7,2.3-13.6c0.4-2.3,0.4-4.7,0.7-7.1c0-0.2,0-0.3,0.1-0.5
			c0-0.1,0-0.2,0-0.3c0.3-1.6,0.7-3.2,1-4.9s1-2.6,1.2-4.4c0.1-1.1-0.1-2.1-0.3-3.1c-0.2-0.9-0.3-1.8-0.5-2.7l0,0
			c0-0.1,0-0.3-0.1-0.4"/>
		<path class="st4" d="M14,58.9L14,58.9c0.2,1.5,1.6,3.4,2.7,4.3c1.3,1,1.6,1.4,3.1,2.2c0.9,0.5,2.1,0.8,3,0.5"/>
		<path class="st4" d="M9.3,67.9c1.2-3.9,1.6-4.5,3.1-8.1c0.2-0.5,0.7-1.1,1.3-1.2"/>
		<path class="st4" d="M12.5,52.9c0.7,1.4,1.2,3,1.7,4.5"/>
		<path class="st4" d="M17.6,40.6c-0.1,0-0.2-0.1-0.3-0.1c-0.4-0.1-1.1,0-1.4,0.1c-1,0.1-1.9,0.4-2.9,0.6c-1.8,0.3-3.5,0.6-5.2,1
			c-3,0.8-5.4,1.4-6.7,4.4c-1.6,3.8,0,8,0.8,11.8c0.9,4.3,2.7,8.2,4.3,12.2c1.1,2.8,2.1,5.6,4.1,7.9c0.7,0.9,1.6,1.7,2.4,2.3
			c1.2,0.8,2.4,1.1,3.9,0.7c1.4-0.4,1.6-0.5,2.3-1.8c2.9-4.8,3.6-8.4,4.3-12.9c0,0,0.2-1-0.1-1.5c0-0.1-0.1-0.2-0.2-0.2"/>
		<path class="st4" d="M26.2,43.8c2.6,0.3,5.1-0.4,7.3-1.7c0.2-0.1,0.3-0.2,0.5-0.3"/>
		<path class="st4" d="M19.7,42.8c-0.4-0.2-0.9-0.4-1.3-0.6c-0.2-0.2-0.5-0.3-0.6-0.5c-0.1-0.1-0.3-0.3-0.3-0.4
			c0-0.1-0.1-0.2-0.1-0.2c0-0.1,0.1-0.2,0.3-0.3c0,0,0,0,0.1,0c1.3-0.8,1.9-3,2-4.5c0-0.1,0-0.2,0-0.3"/>
		<path class="st4" d="M48.8,62.3c0,0.8,0.1,1.7,0,2.5c-0.2,4.9-1.4,10.4-2.2,15c-0.7,3.9-0.2,9,0,13v0.1"/>
		<path class="st4" d="M40.3,17.2c0-0.2,0.1-0.3,0.1-0.5"/>
		<path class="st4" d="M39.8,19c0.1-0.1,0.1-0.3,0.2-0.5c0.1-0.4,0.2-0.9,0.3-1.3"/>
		<path class="st4" d="M40.3,17.2L40.3,17.2"/>
	</g>
</g>
</svg>
