<svg width="40" height="41" viewBox="0 0 40 41" fill="none" xmlns="http://www.w3.org/2000/svg">
<rect y="0.950806" width="40" height="40" rx="5.33333" fill="#E0E0D1"/>
<mask id="mask0_271_4285" style="mask-type:alpha" maskUnits="userSpaceOnUse" x="6" y="8" width="28" height="26">
<path d="M16.0739 15.0811H24.1887C24.6195 15.0811 24.9692 14.6411 24.9692 14.2093C24.9692 13.7775 24.6195 13.3375 24.1887 13.3375H16.0739C15.6431 13.3375 15.2934 13.7775 15.2934 14.2093C15.2934 14.6411 15.6431 15.0811 16.0739 15.0811ZM16.0739 18.2185H24.1887C24.6195 18.2185 24.9692 17.8657 24.9692 17.4339C24.9692 17.0021 24.6195 16.6493 24.1887 16.6493H16.0739C15.6431 16.6493 15.2934 17.0021 15.2934 17.4339C15.2934 17.8657 15.6431 18.2185 16.0739 18.2185ZM16.0739 21.879H24.1887C24.6195 21.879 24.9692 21.439 24.9692 21.0072C24.9692 20.5754 24.6195 20.1354 24.1887 20.1354H16.0739C15.6431 20.1354 15.2934 20.5754 15.2934 21.0072C15.2934 21.439 15.6431 21.879 16.0739 21.879ZM29.4985 13.7365V9.48928C29.4985 8.58671 28.9364 8.28415 27.9518 8.28415H12.3816C11.3723 8.28415 10.5005 8.60005 10.5005 9.48928V13.7272L6.66669 16.0883V32.2821C6.66669 33.0144 7.42874 33.9047 8.16105 33.9047H32.0605C32.7928 33.9047 33.3334 33.0144 33.3334 32.2821V16.0883L29.4985 13.7365ZM10.5016 19.0554L9.09746 18.0083L10.5016 17.1693V19.0554ZM27.4082 21.0175C27.4082 21.0175 21.1108 25.398 20.3221 25.398C19.5334 25.398 12.7682 20.6842 12.7682 20.6842V10.3754H27.4093V21.0175H27.4082ZM29.4995 19.3908V17.1724L31.1539 18.16L29.4995 19.3918V19.3908Z" fill="#868047"/>
</mask>
<g mask="url(#mask0_271_4285)">
<rect x="4" y="4.28415" width="16" height="31.3333" fill="#686224"/>
<rect x="20" y="4.28415" width="16" height="31.3333" fill="#868047"/>
</g>
</svg>
