<svg width="40" height="41" viewBox="0 0 40 41" fill="none" xmlns="http://www.w3.org/2000/svg">
<rect y="0.354248" width="40" height="40" rx="5.33333" fill="#E0E0D1"/>
<g clip-path="url(#clip0_271_2588)">
<mask id="mask0_271_2588" style="mask-type:alpha" maskUnits="userSpaceOnUse" x="6" y="9" width="28" height="24">
<path d="M31.2297 9.02094H8.78619C7.62175 9.02094 6.66669 9.97501 6.66669 11.1385V26.6743C6.66669 27.8387 7.62175 28.7799 8.78619 28.7799H16.3052L14.8721 30.6822C14.4138 31.5987 15.0963 32.3148 15.598 32.3148H24.3042C24.805 32.3148 25.4874 31.5987 25.0301 30.6822L23.5971 28.7799H31.2297C32.3941 28.7799 33.3334 27.8387 33.3334 26.6743V11.1385C33.3334 9.97402 32.3941 9.02094 31.2297 9.02094ZM30.9235 26.3701H9.07656V11.4308H30.9235V26.3711V26.3701ZM23.8548 16.4106C23.8548 16.056 23.5674 15.7676 23.2119 15.7676H21.445C21.0904 15.7676 20.802 16.055 20.802 16.4106V24.4432C20.802 24.7977 21.0894 25.0861 21.445 25.0861H23.2119C23.5664 25.0861 23.8548 24.7987 23.8548 24.4432V16.4106ZM14.6983 22.3543C14.6983 21.9997 14.4109 21.7113 14.0553 21.7113H12.2884C11.9338 21.7113 11.6455 21.9987 11.6455 22.3543V24.2822C11.6455 24.6367 11.9329 24.9251 12.2884 24.9251H14.0553C14.4099 24.9251 14.6983 24.6377 14.6983 24.2822V22.3543ZM28.3536 14.1617C28.3536 13.8071 28.0662 13.5187 27.7106 13.5187H25.9437C25.5892 13.5187 25.3008 13.8061 25.3008 14.1617V24.4432C25.3008 24.7977 25.5882 25.0861 25.9437 25.0861H27.7106C28.0652 25.0861 28.3536 24.7987 28.3536 24.4432V14.1617ZM19.1971 19.3024C19.1971 18.9478 18.9096 18.6595 18.5541 18.6595H16.7872C16.4326 18.6595 16.1442 18.9469 16.1442 19.3024V24.4432C16.1442 24.7977 16.4316 25.0861 16.7872 25.0861H18.5541C18.9087 25.0861 19.1971 24.7987 19.1971 24.4432V19.3024Z" fill="#868047"/>
</mask>
<g mask="url(#mask0_271_2588)">
<rect x="4" y="5.02094" width="16" height="31.3333" fill="#686224"/>
<rect x="20" y="5.02094" width="16" height="31.3333" fill="#868047"/>
</g>
</g>
<defs>
<clipPath id="clip0_271_2588">
<rect width="26.6667" height="23.2928" fill="white" transform="translate(6.66669 9.02094)"/>
</clipPath>
</defs>
</svg>
