<svg width="40" height="41" viewBox="0 0 40 41" fill="none" xmlns="http://www.w3.org/2000/svg">
<rect y="0.0205078" width="40" height="40" rx="5.33333" fill="#E0E0D1"/>
<mask id="mask0_271_4375" style="mask-type:alpha" maskUnits="userSpaceOnUse" x="6" y="8" width="28" height="25">
<path d="M32.2963 29.7576H31.2731V29.6934C31.2731 28.7818 30.7566 27.9413 30.2015 27.9413H29.1269V17.0415H31.9664C33.4697 17.0415 33.8696 14.4954 32.4731 13.8208L29.6692 12.446L20.7892 8.14078C20.4632 7.98375 20.1008 7.97881 19.7748 8.13585L10.8948 12.4302L8.09088 13.8218C6.69533 14.4973 7.09434 17.0415 8.59755 17.0415H10.6292V27.9413H9.91607C9.36101 27.9413 8.64792 28.7818 8.64792 29.6934V29.7576H7.82125C7.26619 29.7576 6.66669 30.0055 6.66669 30.9181V31.2341C6.66669 32.1457 7.26619 32.4005 7.82125 32.4005H32.2963C32.8514 32.4005 33.2543 32.1467 33.2543 31.2341V30.9181C33.2543 30.0065 32.8514 29.7576 32.2963 29.7576ZM25.9882 27.9413H24.0059V17.0415H25.9882V27.9413ZM20.8692 17.0415V27.9413H18.8869V17.0415H20.8692ZM13.7679 17.0415H15.9151V27.9413H13.7679V17.0415Z" fill="#868047"/>
</mask>
<g mask="url(#mask0_271_4375)">
<rect x="4.66669" y="3.35385" width="15.3333" height="32" fill="#686224"/>
<rect x="20" y="3.35385" width="15.3333" height="32" fill="#868047"/>
</g>
</svg>
