<svg width="40" height="40" viewBox="0 0 40 40" fill="none" xmlns="http://www.w3.org/2000/svg">
<rect width="40" height="40" rx="5.33333" fill="#E0E0D1"/>
<mask id="mask0_271_4101" style="mask-type:alpha" maskUnits="userSpaceOnUse" x="6" y="7" width="28" height="26">
<path d="M31.5292 11.7785H25.1559V10.0606C25.1559 8.55491 23.9354 7.33337 22.4287 7.33337H18.2093C16.7436 7.33337 15.5559 8.52107 15.5559 9.98671V11.7775H8.89848C7.67079 11.7775 6.66669 12.7816 6.66669 14.0093V19.6H18.0441V18.5334C18.0441 18.239 18.2831 18 18.5775 18H21.7775C22.0718 18 22.3108 18.239 22.3108 18.5334V19.6H33.3334V13.5826C33.3334 12.5857 32.5251 11.7785 31.5292 11.7785ZM22.8451 11.7785H17.6893V10.0606C17.6893 9.8503 17.999 9.64517 18.2093 9.64517H22.4082C22.6185 9.64517 22.8441 9.8503 22.8441 10.0606V11.7785H22.8451ZM21.7785 22.0893H18.5785C18.2841 22.0893 18.0451 21.8503 18.0451 21.5559V20.4893H6.66669V30.4144C6.66669 31.6041 7.64002 32.5785 8.82976 32.5785H31.5477C32.5334 32.5785 33.3334 31.7795 33.3334 30.7929V20.4893H22.3108V21.5559C22.3108 21.8503 22.0718 22.0893 21.7775 22.0893H21.7785Z" fill="#868047"/>
</mask>
<g mask="url(#mask0_271_4101)">
<rect x="5.33337" y="4" width="14.6667" height="32.6667" fill="#686224"/>
<rect x="20" y="4" width="14.6667" height="32.6667" fill="#868047"/>
</g>
</svg>
